# xmcd
#
# Track frame offsets: 
#        150
#        14416
#        28412
#        43185
#        56188
#        70633
#        82535
#        96571
#        111335
#        126684
#
# Disc length: 1913 seconds
#
# Revision: 0
# Processed by: cddbd v1.5.2PL0 Copyright (c) Steve Scherf et al.
# Submitted via: ExactAudioCopy v1.0b1
#
DISCID=9007770a
DTITLE=Smith Vinson - One Time For The Cow
DYEAR=1973
DGENRE=Country Rock
TTITLE0=Bill Collectors Are Such A Drag
TTITLE1=One Time For The Cow
TTITLE2=J.C. Hardy
TTITLE3=The Day My Ship Came Sailing In
TTITLE4=Gypsy Rose Ball
TTITLE5=Worlds Of Music
TTITLE6=Long Summer Nights
TTITLE7=The Ballad Of Charlie Marshall
TTITLE8=Childhood Days
TTITLE9=Born On The Levee
EXTD=
EXTT0=
EXTT1=
EXTT2=
EXTT3=
EXTT4=
EXTT5=
EXTT6=
EXTT7=
EXTT8=
EXTT9=
PLAYORDER=
